<?xml version="1.0" encoding="UTF-8"?>
<svg width="106px" height="79px" viewBox="0 0 106 79" version="1.1" xmlns="http://www.w3.org/2000/svg" xmlns:xlink="http://www.w3.org/1999/xlink">
    <!-- Generator: Sketch 46.2 (44496) - http://www.bohemiancoding.com/sketch -->
    <title>Group</title>
    <desc>Created with Sketch.</desc>
    <defs></defs>
    <g id="Page-1" stroke="none" stroke-width="1" fill="none" fill-rule="evenodd">
        <g id="Group" fill="#FFFFFF">
            <text id="Auctions" font-family="Helvetica-Bold, Helvetica" font-size="24" font-weight="bold" letter-spacing="0.666666687">
                <tspan x="0" y="78">Auctions</tspan>
            </text>
            <g id="auction" transform="translate(28.000000, 0.000000)" fill-rule="nonzero">
                <path d="M31.909233,17.3684091 C31.4834793,15.1422898 29.6392208,13.5431875 27.5000023,13.5454545 C26.0105947,13.5454545 24.8032251,12.2633807 24.8032251,10.6818182 C24.8032251,9.10025568 26.0105947,7.81818182 27.5000023,7.81818182 C28.9894098,7.81818182 30.1967795,9.10025568 30.1967795,10.6818182 L31.9946309,10.6818182 C31.9919342,8.41465341 30.4901664,6.46117614 28.398928,6.00454545 L28.398928,4 L26.6010765,4 L26.6010765,6.00454545 C24.1683588,6.52906818 22.5968119,9.04835227 23.0907716,11.6315909 C23.5165253,13.8577102 25.3607838,15.4568125 27.5000023,15.4545455 C28.9894098,15.4545455 30.1967795,16.7366193 30.1967795,18.3181818 C30.1967795,19.8997443 28.9894098,21.1818182 27.5000023,21.1818182 C26.0105947,21.1818182 24.8032251,19.8997443 24.8032251,18.3181818 L23.0053736,18.3181818 C23.0080704,20.5853466 24.5098382,22.5388239 26.6010765,22.9954545 L26.6010765,25 L28.398928,25 L28.398928,22.9954545 C30.8315334,22.4708125 32.4031927,19.9515284 31.909233,17.3684091 Z" id="Shape"></path>
                <path d="M40,13.9978933 C39.9985375,6.26542714 33.9531251,-0.00163309497 26.4973001,3.19220899e-07 C19.0414752,0.00163373341 12.9985378,6.27114409 13.0000003,14.0036102 C13.0013503,20.6555728 17.5155252,26.3881566 23.8000002,27.7185725 L23.8000002,37.3323817 L22.9000002,37.3323817 C22.6796127,37.3326151 22.4669877,37.4166192 22.3024002,37.5685267 L14.2024003,45.0355631 C14.0102503,45.2125551 13.9002253,45.4663177 13.9000003,45.7327976 L13.9000003,55.066593 C13.9000003,55.5820518 14.3029753,55.9999725 14.8000002,55.9999725 L31.9000001,55.9999725 C33.3846626,56.0067395 34.5935876,54.7640613 34.6002251,53.2243351 C34.6032626,52.5248838 34.3526126,51.849817 33.8980001,51.3330748 C34.8340001,50.2778892 34.8340001,48.6547422 33.8980001,47.5995566 C34.8340001,46.5443711 34.8340001,44.9212241 33.8980001,43.8660385 C34.8985751,42.7284822 34.8205001,40.9650949 33.7236251,39.9274102 C33.2253626,39.4560535 32.5744376,39.1961073 31.9000001,39.1991408 L30.8344001,39.1991408 C30.5621501,38.4085683 29.9621876,37.7864709 29.2000001,37.5041236 L29.2000001,27.7185725 C35.481775,26.3795229 39.9926875,20.6486892 40,13.9978933 Z M26.5000001,45.2659911 L26.5000001,42.9325423 L24.7000002,42.9325423 L24.7000002,45.2659911 C24.7015752,46.3296938 25.2034376,47.3257264 26.0446001,47.9345232 C25.3666751,48.993909 25.4728751,50.3963118 26.3020001,51.3329581 C25.6248626,52.0847953 25.4157251,53.1690324 25.7620001,54.1330967 L15.7000002,54.1330967 L15.7000002,46.1517683 L23.2420002,39.1990241 L28.3000001,39.1990241 C28.7970251,39.1990241 29.2000001,39.6169448 29.2000001,40.1324037 L29.2000001,45.2659911 C29.2000001,46.0391794 28.5955376,46.6660604 27.8500001,46.6660604 C27.1044626,46.6660604 26.5000001,46.0392961 26.5000001,45.2659911 Z M25.6000001,37.3322651 L25.6000001,27.9508673 C25.8988001,27.9714017 26.1958001,27.9984697 26.5000001,27.9984697 C26.8042001,27.9984697 27.1012001,27.9714017 27.4000001,27.9508673 L27.4000001,37.3322651 L25.6000001,37.3322651 Z M31.9000001,54.1330967 L28.3000001,54.1330967 C27.8029751,54.1330967 27.4000001,53.7151761 27.4000001,53.1997172 C27.4000001,52.6842584 27.8029751,52.2663377 28.3000001,52.2663377 L31.9000001,52.2663377 C32.3970251,52.2663377 32.8000001,52.6842584 32.8000001,53.1997172 C32.8000001,53.7151761 32.3971376,54.1330967 31.9000001,54.1330967 Z M31.0000001,41.0657832 L31.9000001,41.0657832 C32.3970251,41.0657832 32.8000001,41.4837039 32.8000001,41.9991627 C32.8000001,42.5146216 32.3970251,42.9325423 31.9000001,42.9325423 L31.0000001,42.9325423 L31.0000001,41.0657832 Z M31.0000001,45.2659911 L31.0000001,44.7993014 L31.9000001,44.7993014 C32.3970251,44.7993014 32.8000001,45.217222 32.8000001,45.7326809 C32.8000001,46.2481397 32.3970251,46.6660604 31.9000001,46.6660604 L30.6841001,46.6660604 C30.8894126,46.2299388 30.9974126,45.7514652 31.0000001,45.2659911 Z M31.9000001,48.5328195 C32.3970251,48.5328195 32.8000001,48.9507402 32.8000001,49.4661991 C32.8000001,49.9816579 32.3970251,50.3995786 31.9000001,50.3995786 L28.3000001,50.3995786 C27.8029751,50.3995786 27.4000001,49.9816579 27.4000001,49.4661991 C27.4000001,48.9507402 27.8029751,48.5328195 28.3000001,48.5328195 L31.9000001,48.5328195 Z M26.5000001,26.1317106 C20.0413752,26.1240102 14.8074252,20.6959415 14.8000002,13.9977766 C14.8000002,7.29634484 20.0382252,1.86384259 26.5000001,1.86384259 C32.9617751,1.86384259 38.2,7.29634484 38.2,13.9977766 C38.2,20.6992083 32.9617751,26.1317106 26.5000001,26.1317106 Z" id="Shape"></path>
                <path d="M7.5,35.1666667 C7.03979167,35.1666667 6.66666667,34.7935417 6.66666667,34.3333333 C6.66666667,33.873125 7.03979167,33.5 7.5,33.5 C7.96020833,33.5 8.33333333,33.873125 8.33333333,34.3333333 L10,34.3333333 C9.995625,33.2777083 9.32864583,32.3385417 8.33333333,31.9866667 L8.33333333,31 L6.66666667,31 L6.66666667,31.9866667 C5.36739583,32.4442708 4.68510417,33.8685417 5.1428125,35.1678125 C5.49489583,36.1673958 6.44020833,36.8354167 7.5,36.8333333 C7.96020833,36.8333333 8.33333333,37.2064583 8.33333333,37.6666667 C8.33333333,38.126875 7.96020833,38.5 7.5,38.5 C7.03979167,38.5 6.66666667,38.126875 6.66666667,37.6666667 L5,37.6666667 C5.004375,38.7222917 5.67135417,39.6614583 6.66666667,40.0133333 L6.66666667,41 L8.33333333,41 L8.33333333,40.0133333 C9.63260417,39.5557292 10.3148958,38.1314583 9.8571875,36.8321875 C9.50520833,35.8327083 8.55979167,35.1646875 7.5,35.1666667 Z" id="Shape"></path>
                <path d="M8.50306941,29.0000005 C3.80859056,28.9983714 0.00165332036,32.7480416 5.42697374e-07,37.3753462 C-0.00153417942,41.6435445 3.25219477,45.2306511 7.55555558,45.7048436 L7.55555558,56 L9.44444434,56 L9.44444434,45.7048436 C13.743319,45.226811 16.9940966,41.6456391 16.9999994,37.3813973 C17.0017702,32.754209 13.1975483,29.001746 8.50306941,29.0000005 Z M8.49999996,43.8979082 C4.84877799,43.8979082 1.8888893,40.9803732 1.8888893,37.3813973 C1.8888893,33.7824214 4.84877799,30.8648863 8.49999996,30.8648863 C12.1512219,30.8648863 15.1111106,33.7824214 15.1111106,37.3813973 C15.1065065,40.9785113 12.149333,43.8933699 8.49999996,43.8979082 Z" id="Shape"></path>
                <path d="M47.5,35.1666667 C47.0397917,35.1666667 46.6666667,34.7935417 46.6666667,34.3333333 C46.6666667,33.873125 47.0397917,33.5 47.5,33.5 C47.9602083,33.5 48.3333333,33.873125 48.3333333,34.3333333 L50,34.3333333 C49.995625,33.2777083 49.3286458,32.3385417 48.3333333,31.9866667 L48.3333333,31 L46.6666667,31 L46.6666667,31.9866667 C45.3673958,32.4442708 44.6851042,33.8685417 45.1428125,35.1678125 C45.4948958,36.1673958 46.4402083,36.8354167 47.5,36.8333333 C47.9602083,36.8333333 48.3333333,37.2064583 48.3333333,37.6666667 C48.3333333,38.126875 47.9602083,38.5 47.5,38.5 C47.0397917,38.5 46.6666667,38.126875 46.6666667,37.6666667 L45,37.6666667 C45.004375,38.7222917 45.6713542,39.6614583 46.6666667,40.0133333 L46.6666667,41 L48.3333333,41 L48.3333333,40.0133333 C49.6326042,39.5557292 50.3148958,38.1314583 49.8572917,36.8321875 C49.5052083,35.8327083 48.5597917,35.1646875 47.5,35.1666667 Z" id="Shape"></path>
                <path d="M54.9433538,36.4217414 C54.4495247,32.2024095 50.8213616,29.0133836 46.4995877,29 C41.7905665,29.0146638 37.9851223,32.7780216 38.0000437,37.4057284 C38.0136625,41.652875 41.2587233,45.2183879 45.5521938,45.7036897 L45.5521938,56 L47.4469815,56 L47.4469815,45.7036897 C52.1252124,45.1748621 55.4814735,41.0191897 54.9433538,36.4217414 Z M46.4995877,43.8964353 C42.836963,43.8964353 39.8678307,40.9785733 39.8678307,37.379194 C39.8678307,33.7798147 42.836963,30.8619526 46.4995877,30.8619526 C50.1622123,30.8619526 53.1313446,33.7798147 53.1313446,37.379194 C53.1267261,40.9767112 50.1603175,43.8918966 46.4995877,43.8964353 Z" id="Shape"></path>
            </g>
        </g>
    </g>
</svg>