<?xml version="1.0" encoding="utf-8"?>
<!-- Generator: Adobe Illustrator 21.0.0, SVG Export Plug-In . SVG Version: 6.00 Build 0)  -->
<svg version="1.1" id="Layer_1" xmlns="http://www.w3.org/2000/svg" xmlns:xlink="http://www.w3.org/1999/xlink" x="0px" y="0px"
	 viewBox="0 0 192 30" style="enable-background:new 0 0 192 30;" xml:space="preserve">
<style type="text/css">
	.st0{fill:#77787B;}
	.st1{fill:#D8D8DA;}
	.st2{fill:#D4B6E6;}
	.st3{fill:#EBAFD1;}
	.st4{fill:#E07188;}
	.st5{fill:#B4D8F1;}
	.st6{fill:#ACFFF4;}
	.st7{fill:#95D5A7;}
	.st8{fill:#F8E99B;}
	.st9{fill:#EFC27B;}
	.st10{fill:#B681D5;}
	.st11{fill:#E592BF;}
	.st12{fill:#80CB93;}
	.st13{fill:#F6E27D;}
</style>
<title>Group 3</title>
<desc>Created with Sketch.</desc>
<g id="Page-1">
	<g id="Group-3">
		<g id="sa-logo" transform="translate(35.000000, 5.000000)">
			<g id="Group">
				<g>
					<path id="Shape" class="st0" d="M0,20.2l8.5-20l8.8,20h-4.1L11,15H3.9l-2.1,5.2H0L0,20.2z M4.4,13.8h6l-3-7.2L4.4,13.8
						L4.4,13.8z"/>
					<path id="Shape_1_" class="st0" d="M19.8,20.2V0.6h5.5c2.5,0,4.5,0.5,5.8,1.5c1.3,0.9,2,2.4,2,4.3c0,1.4-0.5,2.5-1.4,3.3
						c-0.9,0.8-2.2,1.2-3.9,1.3l5.4,9.2h-4.3l-5.5-9.9c2.1-0.2,3.7-0.5,4.6-1.2c0.9-0.6,1.3-1.6,1.3-3c0-1.5-0.4-2.6-1.3-3.3
						c-0.9-0.7-2.2-1.1-4-1.1h-0.2v18.4H19.8L19.8,20.2z"/>
					<polygon id="Shape_2_" class="st0" points="40.8,20.2 37,20.2 37,0.6 40.8,0.6 					"/>
					<path id="Shape_3_" class="st0" d="M43.4,20.2l8.5-20l8.8,20h-4.1L54.4,15h-7.1l-2.1,5.2H43.4L43.4,20.2z M47.9,13.8h6l-3-7.2
						L47.9,13.8L47.9,13.8z"/>
					<path id="Shape_4_" class="st0" d="M81.5,20.2L90,0.3l8.9,19.9h-4.1L92.6,15h-7.1l-2.1,5.2H81.5L81.5,20.2z M86.1,13.8h6
						l-3-7.2L86.1,13.8L86.1,13.8z"/>
					<g id="Group-2" transform="translate(107.593987, 0.000000)">
						<path id="Shape_5_" class="st0" d="M-3.3,20.6L5.2,0.7L14,20.6H9.9l-2.1-5.2H0.7l-2.1,5.2H-3.3L-3.3,20.6z M1.2,14.1h6L4.2,7
							L1.2,14.1L1.2,14.1z"/>
						<path id="Shape_6_" class="st0" d="M16.5,20.6V1H22c2.5,0,4.5,0.5,5.8,1.5c1.3,0.9,2,2.4,2,4.3c0,1.4-0.5,2.5-1.4,3.3
							c-0.9,0.8-2.2,1.2-3.9,1.3l5.5,9.2h-4.3l-5.5-9.9c2.1-0.2,3.7-0.5,4.6-1.2s1.3-1.6,1.3-3c0-1.5-0.4-2.6-1.3-3.3
							s-2.2-1.1-4-1.1h-0.2v18.3H16.5L16.5,20.6z"/>
						<polygon id="Shape_7_" class="st0" points="36,20.6 36,2.5 30.6,2.5 30.6,1 45.2,1 45.2,2.5 39.8,2.5 39.8,20.6 						"/>
					</g>
					<polygon id="Shape_8_" class="st0" points="63.2,20.2 63.2,0.6 77.3,13.8 77.3,0.6 79.2,0.6 79.2,20.2 65,7.1 65,20.2 					"/>
				</g>
			</g>
		</g>
		<g id="color-palette">
			<g id="Layer_1_1_">
				<path id="Shape_9_" class="st1" d="M15,0C6.7,0,0,6.7,0,15s6.7,15,15,15s15-6.7,15-15S23.3,0,15,0L15,0z M15,19.7
					c-2.6,0-4.7-2.1-4.7-4.7s2.1-4.7,4.7-4.7s4.7,2.1,4.7,4.7S17.6,19.7,15,19.7L15,19.7z"/>
				<path id="Shape_10_" class="st2" d="M16.6,11.1h12.9c-1.1-3.9-3.6-7.1-7-9.1l-9.1,9.1H16.6L16.6,11.1z"/>
				<path id="Shape_11_" class="st3" d="M13.4,11.1L22.5,2c-2.2-1.3-4.8-2-7.5-2c-1.4,0-2.7,0.2-3.9,0.5v12.9L13.4,11.1L13.4,11.1z"
					/>
				<path id="Shape_12_" class="st4" d="M11.1,13.4V0.5C7.2,1.6,3.9,4.1,2,7.5l9.1,9.1L11.1,13.4L11.1,13.4z"/>
				<g id="Group_1_" transform="translate(11.015625, 11.015625)">
					<polygon id="Shape_13_" class="st1" points="0,2.4 2.4,0 5.6,0 5.6,0 2.4,0 					"/>
					<polygon id="Shape_14_" class="st1" points="2.4,7.9 0,5.6 2.4,7.9 5.6,7.9 7.9,5.6 5.6,7.9 					"/>
				</g>
				<path id="Shape_15_" class="st5" d="M29.5,11.1H16.6v0h0.1l2.3,2.4l9.1,9.1c1.3-2.2,2-4.8,2-7.5C30,13.6,29.8,12.3,29.5,11.1
					L29.5,11.1z"/>
				<path id="Shape_16_" class="st6" d="M18.9,16.6v12.9c3.9-1.1,7.1-3.6,9.1-7l-9.1-9.1V16.6L18.9,16.6z"/>
				<path id="Shape_17_" class="st7" d="M16.6,18.9L7.5,28c2.2,1.3,4.8,2,7.5,2c1.4,0,2.7-0.2,3.9-0.5V16.6L16.6,18.9L16.6,18.9z"/>
				<path id="Shape_18_" class="st8" d="M13.4,18.9H0.5c1.1,3.9,3.6,7.1,7,9.1l9.1-9.1H13.4L13.4,18.9z"/>
				<path id="Shape_19_" class="st9" d="M11.1,16.6L2,7.5C0.7,9.7,0,12.3,0,15c0,1.4,0.2,2.7,0.5,3.9h12.9L11.1,16.6L11.1,16.6z"/>
				<polygon id="Shape_20_" class="st1" points="16.6,11.1 16.6,11.1 18.9,13.4 				"/>
				<path id="Shape_21_" class="st10" d="M29.5,11.1c-1.1-3.9-3.6-7.1-7-9.1L15,9.5v1.6h1.6L29.5,11.1L29.5,11.1z"/>
				<path id="Shape_22_" class="st11" d="M22.5,2c-2.2-1.3-4.8-2-7.5-2v9.5L22.5,2L22.5,2z"/>
				<path id="Shape_23_" class="st12" d="M15,20.5V30c1.4,0,2.7-0.2,3.9-0.5V16.6l-2.4,2.4L15,20.5L15,20.5z"/>
				<polygon id="Shape_24_" class="st13" points="16.6,18.9 15,18.9 15,20.5 				"/>
			</g>
		</g>
	</g>
</g>
</svg>
