<?xml version="1.0" encoding="utf-8"?>
<svg version="1.1" id="Layer_1" xmlns="http://www.w3.org/2000/svg" xmlns:xlink="http://www.w3.org/1999/xlink" x="0px" y="0px"
	 viewBox="0 0 122 18.1" style="enable-background:new 0 0 122 18.1;" xml:space="preserve">
<style type="text/css">
	.st0{fill:#1A1918;}
	.st1{fill:none;stroke:#1A1918;stroke-width:0.5;}
	.st2{fill:none;stroke:#1A1918;}
</style>
<g>
	<path class="st0" d="M24.5,10.5c0.2,0.7,0.8,1.1,1.8,1.1c0.8,0,1.4-0.3,1.4-0.9c0-0.9-1.1-0.8-2.2-1.1c-1.3-0.3-2.8-0.9-2.8-2.8
		c0-1.9,1.4-2.8,3.5-2.8c1.9,0,3.2,0.8,3.7,2.4L27.8,7c-0.2-0.7-0.8-1-1.7-1c-0.8,0-1.2,0.3-1.2,0.8c0,0.8,0.9,0.9,2.2,1.1
		c1.4,0.3,2.9,0.8,2.9,2.8c0,1.9-1.3,2.8-3.6,2.8c-1.6,0-3.4-0.5-4-2.4L24.5,10.5 M37.2,8.1c-0.3-0.8-0.5-1.3-0.5-1.3h0
		c0,0-0.2,0.6-0.5,1.3l-0.7,1.8h2.4C37.8,9.9,37.2,8.1,37.2,8.1z M34.7,11.8l-0.6,1.5h-2.3l3.6-9.1h2.5l3.6,9.1h-2.4l-0.6-1.5H34.7z
		 M48.7,8.1c-0.3-0.8-0.5-1.3-0.5-1.3h0c0,0-0.2,0.6-0.5,1.3l-0.7,1.8h2.4L48.7,8.1L48.7,8.1z M46.2,11.8l-0.6,1.5h-2.3l3.6-9.1h2.5
		l3.6,9.1h-2.4L50,11.8H46.2z M58.7,6.3v7h-2.2v-7h-2.8v-2h7.9v2H58.7 M72.2,10.7c-0.7,1.8-2.4,2.9-4.4,2.9c-2.8,0-4.8-1.9-4.8-4.7
		c0-2.8,2-4.7,4.8-4.7c2.1,0,3.7,1.2,4.3,2.6L70,7.3c-0.5-0.7-1.2-1.2-2.2-1.2c-1.5,0-2.5,1.1-2.5,2.7c0,1.6,1,2.7,2.4,2.7
		c1.2,0,2-0.6,2.3-1.4L72.2,10.7 M80.4,9.8h-3.6v3.6h-2.2V4.3h2.2v3.4h3.6V4.3h2.2v9.1h-2.2L80.4,9.8 M85.4,13.3h2.2V4.3h-2.2V13.3z
		 M98.5,8.1C98.2,7.3,98,6.7,98,6.7h0c0,0-0.2,0.6-0.5,1.3l-0.7,1.8h2.4L98.5,8.1L98.5,8.1z M96.1,11.8l-0.6,1.5h-2.3l3.6-9.1h2.5
		l3.6,9.1h-2.4l-0.6-1.5H96.1L96.1,11.8z M108.7,8.6c0.8,0,1.3-0.4,1.3-1.2c0-0.8-0.4-1.2-1.3-1.2h-1.4v2.4H108.7z M108.3,10.4h-1v3
		h-2.2V4.3h3.5c2.3,0,3.7,1.2,3.7,3.1c0,1.2-0.6,2.2-1.7,2.6l2.1,3.4H110L108.3,10.4L108.3,10.4z M119.2,6.3v7H117v-7h-2.8v-2h7.9v2
		H119.2 M13.3,4.5c-0.4-0.3-0.9-0.7-1.4-0.9c-0.5-0.3-1-0.5-1.5-0.7C9.8,2.9,9.2,3,8.6,3.2c0.9,0.2,1.9,0.6,2.8,1.1
		c0.9,0.5,1.7,1.1,2.4,1.8C13.7,5.5,13.5,5,13.3,4.5"/>
	<path class="st1" d="M13.3,4.5c-0.4-0.3-0.9-0.7-1.4-0.9c-0.5-0.3-1-0.5-1.5-0.7C9.8,2.9,9.2,3,8.6,3.2c0.9,0.2,1.9,0.6,2.8,1.1
		c0.9,0.5,1.7,1.1,2.4,1.8C13.7,5.5,13.5,5,13.3,4.5L13.3,4.5z"/>
	<path class="st0" d="M7,2.9c0.6-0.2,1.1-0.4,1.7-0.5C7.9,2.2,7.1,2.1,6.3,2.1c-0.1,0-0.2,0-0.3,0C5.6,2.3,5.3,2.6,5,3
		C5.7,2.9,6.3,2.8,7,2.9"/>
	<path class="st1" d="M7,2.9c0.6-0.2,1.1-0.4,1.7-0.5C7.9,2.2,7.1,2.1,6.3,2.1c-0.1,0-0.2,0-0.3,0C5.6,2.3,5.3,2.6,5,3
		C5.7,2.9,6.3,2.8,7,2.9z"/>
	<path class="st0" d="M16.7,9c-0.1,0.4-0.3,0.8-0.5,1.2c0,0.3,0.1,0.5,0.1,0.8c0,0.7-0.2,1.4-0.5,2c-0.4,0.7-1.1,1.3-1.9,1.7
		c-0.1,0.1-0.3,0.1-0.4,0.2c-0.2,0.4-0.5,0.7-0.8,1c0.5-0.1,1-0.3,1.5-0.5c0.9-0.4,1.7-1.1,2.2-2c0.4-0.7,0.6-1.5,0.6-2.4
		C17.1,10.3,16.9,9.7,16.7,9"/>
	<path class="st1" d="M16.7,9c-0.1,0.4-0.3,0.8-0.5,1.2c0,0.3,0.1,0.5,0.1,0.8c0,0.7-0.2,1.4-0.5,2c-0.4,0.7-1.1,1.3-1.9,1.7
		c-0.1,0.1-0.3,0.1-0.4,0.2c-0.2,0.4-0.5,0.7-0.8,1c0.5-0.1,1-0.3,1.5-0.5c0.9-0.4,1.7-1.1,2.2-2c0.4-0.7,0.6-1.5,0.6-2.4
		C17.1,10.3,16.9,9.7,16.7,9z"/>
	<path class="st0" d="M14.6,5.7c0.2,0.5,0.3,1.1,0.4,1.7c0,0,0,0,0.1,0.1c0.4,0.5,0.7,1.1,0.9,1.6c0.2-0.4,0.3-0.8,0.3-1.2
		C16,7.5,15.8,7.2,15.6,7C15.3,6.5,15,6.1,14.6,5.7"/>
	<path class="st1" d="M14.6,5.7c0.2,0.5,0.3,1.1,0.4,1.7c0,0,0,0,0.1,0.1c0.4,0.5,0.7,1.1,0.9,1.6c0.2-0.4,0.3-0.8,0.3-1.2
		C16,7.5,15.8,7.2,15.6,7C15.3,6.5,15,6.1,14.6,5.7z"/>
	<path class="st0" d="M2.8,12.4c-0.2-0.5-0.3-1.1-0.4-1.7c0,0,0,0-0.1-0.1c-0.4-0.5-0.6-1-0.9-1.6c-0.2,0.4-0.3,0.8-0.3,1.2
		c0.2,0.3,0.3,0.6,0.5,0.9C2,11.6,2.3,12,2.8,12.4"/>
	<path class="st1" d="M2.8,12.4c-0.2-0.5-0.3-1.1-0.4-1.7c0,0,0,0-0.1-0.1c-0.4-0.5-0.6-1-0.9-1.6c-0.2,0.4-0.3,0.8-0.3,1.2
		c0.2,0.3,0.3,0.6,0.5,0.9C2,11.6,2.3,12,2.8,12.4L2.8,12.4z"/>
	<path class="st0" d="M1.1,7.1c0-0.7,0.2-1.4,0.5-2C2,4.4,2.6,3.8,3.4,3.4c0.1-0.1,0.3-0.1,0.4-0.2c0.2-0.4,0.5-0.7,0.8-1
		c-0.5,0.1-1,0.3-1.5,0.5c-0.9,0.4-1.7,1.1-2.2,2C0.5,5.4,0.2,6.2,0.3,7.1c0,0.7,0.1,1.3,0.4,2c0.1-0.4,0.3-0.8,0.5-1.2
		C1.1,7.6,1.1,7.3,1.1,7.1"/>
	<path class="st1" d="M1.1,7.1c0-0.7,0.2-1.4,0.5-2C2,4.4,2.6,3.8,3.4,3.4c0.1-0.1,0.3-0.1,0.4-0.2c0.2-0.4,0.5-0.7,0.8-1
		c-0.5,0.1-1,0.3-1.5,0.5c-0.9,0.4-1.7,1.1-2.2,2C0.5,5.4,0.2,6.2,0.3,7.1c0,0.7,0.1,1.3,0.4,2c0.1-0.4,0.3-0.8,0.5-1.2
		C1.1,7.6,1.1,7.3,1.1,7.1L1.1,7.1z"/>
	<path class="st0" d="M10.3,15.2c-0.6,0.2-1.1,0.4-1.7,0.5C9.5,15.9,10.3,16,11,16c0.1,0,0.2,0,0.3,0c0.3-0.3,0.6-0.5,0.9-0.9
		C11.6,15.2,11,15.2,10.3,15.2"/>
	<path class="st1" d="M10.3,15.2c-0.6,0.2-1.1,0.4-1.7,0.5C9.5,15.9,10.3,16,11,16c0.1,0,0.2,0,0.3,0c0.3-0.3,0.6-0.5,0.9-0.9
		C11.6,15.2,11,15.2,10.3,15.2z"/>
	<path class="st0" d="M5.9,13.8C5,13.3,4.2,12.7,3.5,12c0.2,0.5,0.3,1.1,0.6,1.5c0.4,0.3,0.9,0.7,1.4,0.9C6,14.8,6.5,15,7,15.2
		c0.6,0,1.1-0.1,1.7-0.3C7.7,14.7,6.8,14.3,5.9,13.8"/>
	<path class="st1" d="M5.9,13.8C5,13.3,4.2,12.7,3.5,12c0.2,0.5,0.3,1.1,0.6,1.5c0.4,0.3,0.9,0.7,1.4,0.9C6,14.8,6.5,15,7,15.2
		c0.6,0,1.1-0.1,1.7-0.3C7.7,14.7,6.8,14.3,5.9,13.8z"/>
	<path class="st0" d="M3.5,12c-0.3-1-0.4-2-0.4-3c0-1,0.1-2,0.4-2.9C3.1,6.5,2.7,6.9,2.4,7.4C2.3,7.9,2.3,8.5,2.3,9
		c0,0.6,0,1.1,0.1,1.7C2.7,11.2,3.1,11.6,3.5,12"/>
	<path class="st1" d="M3.5,12c-0.3-1-0.4-2-0.4-3c0-1,0.1-2,0.4-2.9C3.1,6.5,2.7,6.9,2.4,7.4C2.3,7.9,2.3,8.5,2.3,9
		c0,0.6,0,1.1,0.1,1.7C2.7,11.2,3.1,11.6,3.5,12L3.5,12z"/>
	<path class="st0" d="M13.3,4.5c0.5,0.4,0.9,0.7,1.3,1.1c-0.3-0.9-0.6-1.7-1.1-2.4c-0.4-0.1-0.8-0.3-1.2-0.3
		C12.6,3.4,13,3.9,13.3,4.5L13.3,4.5"/>
	<path class="st1" d="M13.3,4.5c0.5,0.4,0.9,0.7,1.3,1.1c-0.3-0.9-0.6-1.7-1.1-2.4c-0.4-0.1-0.8-0.3-1.2-0.3
		C12.6,3.4,13,3.9,13.3,4.5L13.3,4.5L13.3,4.5z"/>
	<path class="st0" d="M14.9,7.4c-0.3-0.5-0.7-0.9-1.1-1.3c0.3,0.9,0.4,1.8,0.4,3c0,0.8-0.1,2-0.4,2.9c0.4-0.4,0.8-0.8,1.1-1.3
		C15,10.2,15,9.8,15,9.1C15,8.7,15,7.9,14.9,7.4"/>
	<path class="st1" d="M14.9,7.4c-0.3-0.5-0.7-0.9-1.1-1.3c0.3,0.9,0.4,1.8,0.4,3c0,0.8-0.1,2-0.4,2.9c0.4-0.4,0.8-0.8,1.1-1.3
		C15,10.2,15,9.8,15,9.1C15,8.7,15,7.9,14.9,7.4L14.9,7.4z"/>
	<path class="st0" d="M6.5,1.6C7.2,1.3,7.9,1,8.7,1c0.7,0,1.5,0.2,2.1,0.6c0.2,0.1,0.4,0.3,0.6,0.4c0.5,0,0.9,0.1,1.3,0.1
		c-0.4-0.5-0.9-0.9-1.5-1.2c-0.8-0.5-1.6-0.7-2.5-0.7C7.8,0.2,6.9,0.5,6.1,1C5.6,1.3,5.1,1.7,4.6,2.2C5,2.1,5.5,2.1,5.9,2.1
		C6.1,1.9,6.3,1.8,6.5,1.6"/>
	<path class="st1" d="M6.5,1.6C7.2,1.3,7.9,1,8.7,1c0.7,0,1.5,0.2,2.1,0.6c0.2,0.1,0.4,0.3,0.6,0.4c0.5,0,0.9,0.1,1.3,0.1
		c-0.4-0.5-0.9-0.9-1.5-1.2c-0.8-0.5-1.6-0.7-2.5-0.7C7.8,0.2,6.9,0.5,6.1,1C5.6,1.3,5.1,1.7,4.6,2.2C5,2.1,5.5,2.1,5.9,2.1
		C6.1,1.9,6.3,1.8,6.5,1.6L6.5,1.6z"/>
	<path class="st0" d="M14.6,12.4c-0.4,0.4-0.8,0.8-1.3,1.1c-0.2,0.4-0.4,0.8-0.7,1.2c-0.1,0.1-0.2,0.3-0.3,0.4
		c0.4-0.1,0.8-0.2,1.2-0.3c0.2-0.3,0.4-0.6,0.5-0.9C14.2,13.4,14.4,12.9,14.6,12.4"/>
	<path class="st1" d="M14.6,12.4c-0.4,0.4-0.8,0.8-1.3,1.1c-0.2,0.4-0.4,0.8-0.7,1.2c-0.1,0.1-0.2,0.3-0.3,0.4
		c0.4-0.1,0.8-0.2,1.2-0.3c0.2-0.3,0.4-0.6,0.5-0.9C14.2,13.4,14.4,12.9,14.6,12.4z"/>
	<path class="st0" d="M4.1,13.5c-0.5-0.3-0.9-0.7-1.3-1.1c0.3,0.9,0.6,1.7,1.1,2.4c0.4,0.1,0.8,0.3,1.2,0.3
		C4.7,14.7,4.3,14.1,4.1,13.5L4.1,13.5"/>
	<path class="st1" d="M4.1,13.5c-0.5-0.3-0.9-0.7-1.3-1.1c0.3,0.9,0.6,1.7,1.1,2.4c0.4,0.1,0.8,0.3,1.2,0.3
		C4.7,14.7,4.3,14.1,4.1,13.5L4.1,13.5L4.1,13.5z"/>
	<path class="st0" d="M10.8,16.4C10.1,16.8,9.4,17,8.7,17c-0.7,0-1.5-0.2-2.1-0.6c-0.2-0.1-0.4-0.3-0.6-0.4c-0.4,0-0.9-0.1-1.3-0.1
		c0.4,0.5,0.9,0.9,1.5,1.2c0.8,0.5,1.6,0.7,2.5,0.7c0.9,0,1.8-0.3,2.5-0.7c0.6-0.3,1.1-0.8,1.5-1.3c-0.4,0.1-0.9,0.1-1.3,0.1
		C11.2,16.2,11,16.3,10.8,16.4"/>
	<path class="st1" d="M10.8,16.4C10.1,16.8,9.4,17,8.7,17c-0.7,0-1.5-0.2-2.1-0.6c-0.2-0.1-0.4-0.3-0.6-0.4c-0.4,0-0.9-0.1-1.3-0.1
		c0.4,0.5,0.9,0.9,1.5,1.2c0.8,0.5,1.6,0.7,2.5,0.7c0.9,0,1.8-0.3,2.5-0.7c0.6-0.3,1.1-0.8,1.5-1.3c-0.4,0.1-0.9,0.1-1.3,0.1
		C11.2,16.2,11,16.3,10.8,16.4z"/>
	<path class="st0" d="M2.8,5.7C3.1,5.3,3.6,4.9,4,4.5c0.2-0.4,0.4-0.8,0.7-1.2C4.9,3.2,4.9,3.1,5,3C4.6,3,4.2,3.1,3.8,3.3
		C3.7,3.6,3.5,3.9,3.3,4.2C3.1,4.6,2.9,5.2,2.8,5.7"/>
	<path class="st1" d="M2.8,5.7C3.1,5.3,3.6,4.9,4,4.5c0.2-0.4,0.4-0.8,0.7-1.2C4.9,3.2,4.9,3.1,5,3C4.6,3,4.2,3.1,3.8,3.3
		C3.7,3.6,3.5,3.9,3.3,4.2C3.1,4.6,2.9,5.2,2.8,5.7z"/>
	<path class="st0" d="M14.9,7.3c-0.1-0.6-0.2-1.1-0.4-1.7c-0.4-0.4-0.8-0.8-1.3-1.1c0.2,0.5,0.4,1,0.6,1.5
		C14.3,6.5,14.6,6.9,14.9,7.3"/>
	<path class="st1" d="M14.9,7.3c-0.1-0.6-0.2-1.1-0.4-1.7c-0.4-0.4-0.8-0.8-1.3-1.1c0.2,0.5,0.4,1,0.6,1.5
		C14.3,6.5,14.6,6.9,14.9,7.3z"/>
	<path class="st0" d="M2.4,10.7c0.1,0.6,0.2,1.1,0.4,1.7c0.4,0.4,0.8,0.8,1.3,1.1c-0.2-0.5-0.4-1-0.6-1.5
		C3.1,11.6,2.7,11.2,2.4,10.7"/>
	<path class="st1" d="M2.4,10.7c0.1,0.6,0.2,1.1,0.4,1.7c0.4,0.4,0.8,0.8,1.3,1.1c-0.2-0.5-0.4-1-0.6-1.5
		C3.1,11.6,2.7,11.2,2.4,10.7z"/>
	<path class="st0" d="M12.3,15.1c-0.3,0.3-0.6,0.6-0.9,0.9c0.4,0,0.9-0.1,1.3-0.1c0.3-0.3,0.5-0.7,0.8-1
		C13.1,14.9,12.7,15.1,12.3,15.1"/>
	<path class="st1" d="M12.3,15.1c-0.3,0.3-0.6,0.6-0.9,0.9c0.4,0,0.9-0.1,1.3-0.1c0.3-0.3,0.5-0.7,0.8-1
		C13.1,14.9,12.7,15.1,12.3,15.1z"/>
	<path class="st0" d="M5,3c0.3-0.3,0.6-0.6,0.9-0.9C5.5,2.1,5,2.1,4.6,2.2c-0.3,0.3-0.6,0.7-0.8,1C4.2,3.1,4.6,3,5,3"/>
	<path class="st1" d="M5,3c0.3-0.3,0.6-0.6,0.9-0.9C5.5,2.1,5,2.1,4.6,2.2c-0.3,0.3-0.6,0.7-0.8,1C4.2,3.1,4.6,3,5,3z"/>
	<path class="st0" d="M11.4,13.8l0.3,0.5L11.4,13.8"/>
	<path class="st2" d="M11.4,13.8l0.3,0.5L11.4,13.8z"/>
	<path class="st0" d="M3.8,14.8c-0.1,0-0.3-0.1-0.4-0.2C2.6,14.3,2,13.7,1.6,13c-0.4-0.6-0.5-1.3-0.5-2c0-0.3,0-0.5,0.1-0.8
		C0.9,9.9,0.7,9.5,0.6,9.1c-0.2,0.6-0.3,1.3-0.3,2c0,0.8,0.2,1.7,0.6,2.4c0.5,0.9,1.3,1.5,2.2,2c0.5,0.2,1,0.4,1.5,0.5
		C4.3,15.5,4.1,15.2,3.8,14.8"/>
	<path class="st1" d="M3.8,14.8c-0.1,0-0.3-0.1-0.4-0.2C2.6,14.3,2,13.7,1.6,13c-0.4-0.6-0.5-1.3-0.5-2c0-0.3,0-0.5,0.1-0.8
		C0.9,9.9,0.7,9.5,0.6,9.1c-0.2,0.6-0.3,1.3-0.3,2c0,0.8,0.2,1.7,0.6,2.4c0.5,0.9,1.3,1.5,2.2,2c0.5,0.2,1,0.4,1.5,0.5
		C4.3,15.5,4.1,15.2,3.8,14.8z"/>
	<path class="st0" d="M13.5,3.2c0.1,0.1,0.3,0.1,0.4,0.2c0.8,0.4,1.4,0.9,1.9,1.6c0.4,0.6,0.5,1.3,0.5,2c0,0.3,0,0.5-0.1,0.8
		c0.2,0.4,0.4,0.8,0.5,1.2c0.2-0.6,0.3-1.3,0.3-2c0-0.8-0.2-1.7-0.6-2.4c-0.5-0.9-1.3-1.5-2.2-2c-0.5-0.2-1-0.4-1.5-0.5
		C13,2.5,13.2,2.9,13.5,3.2"/>
	<path class="st1" d="M13.5,3.2c0.1,0.1,0.3,0.1,0.4,0.2c0.8,0.4,1.4,0.9,1.9,1.6c0.4,0.6,0.5,1.3,0.5,2c0,0.3,0,0.5-0.1,0.8
		c0.2,0.4,0.4,0.8,0.5,1.2c0.2-0.6,0.3-1.3,0.3-2c0-0.8-0.2-1.7-0.6-2.4c-0.5-0.9-1.3-1.5-2.2-2c-0.5-0.2-1-0.4-1.5-0.5
		C13,2.5,13.2,2.9,13.5,3.2z"/>
	<path class="st0" d="M8.7,15.7c-0.6-0.1-1.1-0.3-1.7-0.5c-0.6,0.1-1.3,0-1.9-0.1c0.3,0.3,0.6,0.6,0.9,0.9c0.1,0,0.2,0,0.3,0
		C7,16,7.9,15.9,8.7,15.7"/>
	<path class="st1" d="M8.7,15.7c-0.6-0.1-1.1-0.3-1.7-0.5c-0.6,0.1-1.3,0-1.9-0.1c0.3,0.3,0.6,0.6,0.9,0.9c0.1,0,0.2,0,0.3,0
		C7,16,7.9,15.9,8.7,15.7z"/>
	<path class="st0" d="M8.6,2.4c0.6,0.1,1.1,0.3,1.7,0.5c0.6-0.1,1.3,0,1.9,0.1c-0.3-0.3-0.6-0.6-0.9-0.9c-0.1,0-0.2,0-0.3,0
		C10.3,2.1,9.5,2.2,8.6,2.4"/>
	<path class="st1" d="M8.6,2.4c0.6,0.1,1.1,0.3,1.7,0.5c0.6-0.1,1.3,0,1.9,0.1c-0.3-0.3-0.6-0.6-0.9-0.9c-0.1,0-0.2,0-0.3,0
		C10.3,2.1,9.5,2.2,8.6,2.4z"/>
	<path class="st0" d="M2.4,7.4c0.1-0.6,0.2-1.1,0.4-1.7C2.3,6.1,2,6.5,1.7,7C1.5,7.3,1.3,7.6,1.1,7.9c0.1,0.4,0.2,0.8,0.3,1.2
		C1.7,8.5,2,7.9,2.4,7.4C2.4,7.4,2.4,7.4,2.4,7.4"/>
	<path class="st1" d="M2.4,7.4c0.1-0.6,0.2-1.1,0.4-1.7C2.3,6.1,2,6.5,1.7,7C1.5,7.3,1.3,7.6,1.1,7.9c0.1,0.4,0.2,0.8,0.3,1.2
		C1.7,8.5,2,7.9,2.4,7.4C2.4,7.4,2.4,7.4,2.4,7.4z"/>
	<path class="st0" d="M15,10.6C15,10.7,14.9,10.7,15,10.6c-0.1,0.6-0.3,1.2-0.4,1.7c0.4-0.4,0.8-0.9,1.1-1.3
		c0.2-0.3,0.4-0.6,0.5-0.9C16.1,9.8,16,9.4,15.8,9C15.6,9.6,15.3,10.1,15,10.6"/>
	<path class="st1" d="M15,10.6C15,10.7,14.9,10.7,15,10.6c-0.1,0.6-0.3,1.2-0.4,1.7c0.4-0.4,0.8-0.9,1.1-1.3
		c0.2-0.3,0.4-0.6,0.5-0.9C16.1,9.8,16,9.4,15.8,9C15.6,9.6,15.3,10.1,15,10.6z"/>
	<path class="st0" d="M11.8,14.5c0.5-0.3,1-0.6,1.4-0.9c0.2-0.5,0.4-1,0.6-1.5c-0.7,0.7-1.5,1.3-2.4,1.8c-0.9,0.5-1.8,0.9-2.8,1.1
		c0.6,0.1,1.1,0.2,1.7,0.3C10.9,15,11.4,14.7,11.8,14.5"/>
	<path class="st1" d="M11.8,14.5c0.5-0.3,1-0.6,1.4-0.9c0.2-0.5,0.4-1,0.6-1.5c-0.7,0.7-1.5,1.3-2.4,1.8c-0.9,0.5-1.8,0.9-2.8,1.1
		c0.6,0.1,1.1,0.2,1.7,0.3C10.9,15,11.4,14.7,11.8,14.5"/>
	<path class="st0" d="M5.9,4.3c0.9-0.5,1.8-0.9,2.8-1.1C8.1,3,7.5,2.9,7,2.9C6.5,3.1,6,3.3,5.5,3.6C5,3.9,4.5,4.2,4,4.5
		C3.8,5,3.6,5.5,3.5,6.1C4.2,5.4,5,4.8,5.9,4.3"/>
	<path class="st1" d="M5.9,4.3c0.9-0.5,1.8-0.9,2.8-1.1C8.1,3,7.5,2.9,7,2.9C6.5,3.1,6,3.3,5.5,3.6C5,3.9,4.5,4.2,4,4.5
		C3.8,5,3.6,5.5,3.5,6.1C4.2,5.4,5,4.8,5.9,4.3z"/>
	<path class="st0" d="M10.3,2.9C9.8,2.7,9.2,2.5,8.6,2.4C8.1,2.5,7.5,2.7,7,2.9c0.5,0,1.1,0.1,1.7,0.3C9.2,3,9.8,2.9,10.3,2.9"/>
	<path class="st1" d="M10.3,2.9C9.8,2.7,9.2,2.5,8.6,2.4C8.1,2.5,7.5,2.7,7,2.9c0.5,0,1.1,0.1,1.7,0.3C9.2,3,9.8,2.9,10.3,2.9
		L10.3,2.9z"/>
	<path class="st0" d="M15.8,9c0.2,0.4,0.3,0.8,0.3,1.2c0.2-0.4,0.4-0.8,0.5-1.2c-0.1-0.4-0.3-0.8-0.5-1.2C16.1,8.2,16,8.6,15.8,9"/>
	<path class="st1" d="M15.8,9c0.2,0.4,0.3,0.8,0.3,1.2c0.2-0.4,0.4-0.8,0.5-1.2c-0.1-0.4-0.3-0.8-0.5-1.2C16.1,8.2,16,8.6,15.8,9
		L15.8,9z"/>
	<path class="st0" d="M7,15.2c0.6,0.2,1.1,0.4,1.7,0.5c0.6-0.1,1.1-0.3,1.7-0.5c-0.6,0-1.1-0.1-1.7-0.3C8.1,15,7.6,15.1,7,15.2"/>
	<path class="st1" d="M7,15.2c0.6,0.2,1.1,0.4,1.7,0.5c0.6-0.1,1.1-0.3,1.7-0.5c-0.6,0-1.1-0.1-1.7-0.3C8.1,15,7.6,15.1,7,15.2z"/>
	<path class="st0" d="M1.5,9.1C1.3,8.7,1.2,8.3,1.1,7.9C0.9,8.2,0.7,8.6,0.6,9.1c0.1,0.4,0.3,0.8,0.5,1.2C1.2,9.8,1.3,9.4,1.5,9.1"
		/>
	<path class="st1" d="M1.5,9.1C1.3,8.7,1.2,8.3,1.1,7.9C0.9,8.2,0.7,8.6,0.6,9.1c0.1,0.4,0.3,0.8,0.5,1.2C1.2,9.8,1.3,9.4,1.5,9.1z"
		/>
	<path class="st0" d="M3.5,6.1C3.6,5.6,3.8,5,4,4.5C3.6,4.9,3.1,5.3,2.8,5.7C2.6,6.2,2.5,6.8,2.4,7.4C2.7,6.9,3.1,6.5,3.5,6.1"/>
	<path class="st1" d="M3.5,6.1C3.6,5.6,3.8,5,4,4.5C3.6,4.9,3.1,5.3,2.8,5.7C2.6,6.2,2.5,6.8,2.4,7.4C2.7,6.9,3.1,6.5,3.5,6.1z"/>
	<path class="st0" d="M12.2,2.9c0.4,0.1,0.8,0.2,1.2,0.3c-0.2-0.4-0.5-0.7-0.8-1c-0.4-0.1-0.9-0.1-1.3-0.1C11.7,2.3,12,2.6,12.2,2.9
		"/>
	<path class="st1" d="M12.2,2.9c0.4,0.1,0.8,0.2,1.2,0.3c-0.2-0.4-0.5-0.7-0.8-1c-0.4-0.1-0.9-0.1-1.3-0.1C11.7,2.3,12,2.6,12.2,2.9
		z"/>
	<path class="st0" d="M5.1,15.1c-0.4-0.1-0.8-0.2-1.2-0.3c0.2,0.4,0.5,0.7,0.8,1C5.1,15.9,5.5,16,5.9,16C5.6,15.7,5.3,15.5,5.1,15.1
		"/>
	<path class="st1" d="M5.1,15.1c-0.4-0.1-0.8-0.2-1.2-0.3c0.2,0.4,0.5,0.7,0.8,1C5.1,15.9,5.5,16,5.9,16C5.6,15.7,5.3,15.5,5.1,15.1
		L5.1,15.1z"/>
	<path class="st0" d="M13.8,12c-0.1,0.5-0.3,1.1-0.6,1.5c0.5-0.4,0.9-0.7,1.3-1.1c0.2-0.5,0.3-1.1,0.4-1.7
		C14.6,11.1,14.3,11.6,13.8,12"/>
	<path class="st1" d="M13.8,12c-0.1,0.5-0.3,1.1-0.6,1.5c0.5-0.4,0.9-0.7,1.3-1.1c0.2-0.5,0.3-1.1,0.4-1.7
		C14.6,11.1,14.3,11.6,13.8,12z"/>
</g>
</svg>
