<svg xmlns="http://www.w3.org/2000/svg" xmlns:xlink="http://www.w3.org/1999/xlink" viewBox="0 0 272 34">
    <defs>
        <path id="a" d="M0 33h271.936V.976H0z"/>
    </defs>
    <g fill="none" fill-rule="evenodd">
        <path fill="#231F1F" d="M53.095 9.244v2.667h-4.11v12.887h-3V11.911h-4.111V9.244zM66.153 17.798h-7.776v7h-3V9.244h3v5.888h7.776V9.244h3v15.554h-3zM76.007 11.91v3.223h4.777v2.666h-4.777v4.332h6.555v2.667h-9.555V9.245h9.332v2.666z"/>
        <g transform="translate(0 .024)">
            <path fill="#231F1F" d="M99.735 8.99c4.8 0 8.11 3.578 8.11 8 0 4.42-3.31 7.998-8.11 7.998-4.799 0-8.11-3.578-8.11-7.998 0-4.422 3.311-8 8.11-8zm0 13.332c2.933 0 5.11-2.401 5.11-5.332 0-2.934-2.177-5.334-5.11-5.334-2.933 0-5.11 2.4-5.11 5.334 0 2.93 2.177 5.332 5.11 5.332zM120.036 9.212v2.666h-4.11v12.887h-3V11.878h-4.11V9.212zM133.094 17.766h-7.777v7h-2.999V9.212h2.999v5.887h7.777V9.212h3v15.554h-3zM142.948 11.878V15.1h4.778v2.666h-4.778v4.333h6.555v2.667h-9.554V9.212h9.331v2.666zM155.501 17.877v6.887h-2.999V9.211h5.666c1.6 0 2.621.445 3.4 1.156a4.376 4.376 0 0 1 1.376 3.177 4.376 4.376 0 0 1-1.377 3.177c-.422.4-.933.712-1.555.911l5.821 7.132h-3.71l-5.532-6.887h-1.09zm2.488-2.667c.867 0 1.245-.177 1.512-.466a1.79 1.79 0 0 0 .444-1.178c0-.466-.177-.91-.444-1.199-.267-.29-.645-.49-1.512-.49h-2.488v3.333h2.488zM175.846 24.753L182.512 9.2h2.11l6.666 15.553h-3.132l-1.467-3.443h-6.243l-1.467 3.443h-3.133zm5.732-6.108h3.956l-1.978-4.601-1.978 4.6zM196.316 17.866v6.887h-3V9.2h5.667c1.6 0 2.62.444 3.399 1.155a4.381 4.381 0 0 1 1.378 3.178 4.377 4.377 0 0 1-1.378 3.177 3.98 3.98 0 0 1-1.555.91l5.82 7.133h-3.71l-5.531-6.887h-1.09zm2.489-2.667c.866 0 1.244-.177 1.51-.467.268-.288.445-.733.445-1.177 0-.466-.177-.91-.444-1.2-.267-.29-.645-.488-1.511-.488h-2.49v3.332h2.49zM217.577 9.2v2.667h-4.11v12.886h-3V11.867h-4.11V9.2zM228.728 11.866v3.223h4.777v2.666h-4.777v7h-3V9.198h9.333v2.667zM234.392 24.754L241.057 9.2h2.11l6.666 15.553H246.7l-1.466-3.444h-6.244l-1.466 3.444h-3.133zm5.73-6.11h3.957l-1.977-4.6-1.98 4.6z"/>
            <mask id="b" fill="#fff">
                <use xlink:href="#a"/>
            </mask>
            <path fill="#231F1F" d="M251.863 24.754h2.999V9.201h-2.999zM261.605 17.89v6.888h-3V9.224h5.666c1.6 0 2.62.445 3.399 1.155a4.384 4.384 0 0 1 1.378 3.179 4.38 4.38 0 0 1-1.378 3.177c-.422.4-.933.712-1.555.91l5.82 7.133h-3.71l-5.531-6.888h-1.09zm2.487-2.667c.867 0 1.245-.177 1.512-.466.267-.29.444-.732.444-1.178 0-.466-.177-.91-.444-1.2-.267-.288-.645-.488-1.512-.488h-2.487v3.332h2.487zM16.373 7.068c-5.592 0-10.146 4.452-10.146 9.924 0 5.462 4.554 9.92 10.146 9.92 5.605 0 10.15-4.458 10.15-9.92 0-5.472-4.545-9.924-10.15-9.924" mask="url(#b)"/>
            <path fill="#231F1F" d="M16.373 29.81c-7.23 0-13.115-5.75-13.115-12.817 0-7.074 5.885-12.827 13.115-12.827 7.24 0 13.126 5.752 13.126 12.826 0 7.067-5.886 12.817-13.126 12.817zM0 33h32.752V.976H0v32.022z" mask="url(#b)"/>
        </g>
    </g>
</svg>
